<svg xmlns="http://www.w3.org/2000/svg" version="1.1" xmlns:xlink="http://www.w3.org/1999/xlink" width="1000" height="1000"><metadata><rdf:RDF xmlns:rdf="http://www.w3.org/1999/02/22-rdf-syntax-ns#" xmlns:dc="http://purl.org/dc/elements/1.1/"><rdf:Description><dc:creator>RealFaviconGenerator</dc:creator><dc:source>https://realfavicongenerator.net</dc:source></rdf:Description></rdf:RDF></metadata><g clip-path="url(#SvgjsClipPath1117)"><rect width="1000" height="1000" fill="#ffffff"></rect><g transform="matrix(32.142857142857146,0,0,32.142857142857146,49.99999999999994,162.49999999999994)"><svg xmlns="http://www.w3.org/2000/svg" width="28" height="21" viewBox="0 0 28 21" fill="none"><path d="M15.3124 0C16.0395 0.227003 21.1072 4.5895 22.1527 5.19311C22.1527 4.46582 22.15 3.55671 22.15 2.79456C22.789 2.79456 24.3345 2.79127 24.9856 2.79127C24.9856 3.78399 25.0042 6.46586 25.0042 7.3713C25.5469 7.81506 27.1073 9.05682 27.5183 9.41115C27.5183 9.86916 27.5183 11.5569 27.5183 11.8751C27.1982 11.6903 26.7891 11.3751 26.4167 11.1207C25.8711 10.6993 25.3223 10.2821 24.7705 9.86916C22.3124 8.0228 19.8762 6.14761 17.4622 4.24397C16.8509 3.76815 16.0616 3.14761 15.4443 2.66163C15.3774 2.61543 15.3343 2.60215 15.198 2.71093C14.9252 2.96579 14.9707 2.92034 14.7778 3.08113C12.1589 5.03792 9.52114 6.96934 6.86491 8.87503C5.88326 9.58738 4.25978 10.7363 3.28864 11.4416C2.42499 11.4416 0.924957 11.4102 0 11.4102C0.652224 10.875 1.20476 10.4082 1.79186 9.96491L4.66608 7.81929L15.3124 0Z" fill="#1D2D38"></path><path d="M5.50261 11.9102C5.74277 11.9102 5.76384 11.9102 5.84961 11.9102C5.84961 12.2352 5.8642 18.6248 5.8642 19.6572L11.9602 19.6555C12.9259 19.6533 14.5965 19.6632 15.5458 19.6793C15.534 20.1166 15.5255 20.554 15.5202 20.9913C15.1308 21.004 14.7061 20.9985 14.3136 21.0012L4.38471 20.9941C4.38471 19.9341 4.36378 18.5346 4.36377 17.4722C4.36379 15.6451 4.38424 13.7489 4.38426 11.9102H5.50261Z" fill="#E78B38"></path><path d="M15.5457 10.2735C16.1544 10.2733 17.1853 10.2736 17.8184 10.2734C17.8184 10.5932 17.8184 12.2554 17.8184 12.4553C17.1348 12.4553 16.2519 12.4553 15.5457 12.4553C15.5457 11.9433 15.5457 10.7168 15.5457 10.2735Z" fill="#1D2D38"></path><path d="M15.5457 12.9102C16.1544 12.9101 17.1853 12.9103 17.8184 12.9102C17.8184 13.2299 17.8184 14.8921 17.8184 15.0921C17.1348 15.0921 16.2519 15.0921 15.5457 15.0921C15.5457 14.58 15.5457 13.3535 15.5457 12.9102Z" fill="#1D2D38"></path><path d="M12.8184 10.2735C13.4271 10.2733 14.458 10.2736 15.0911 10.2734C15.0911 10.5932 15.0911 12.2554 15.0911 12.4553C14.4075 12.4553 13.5246 12.4553 12.8184 12.4553C12.8184 11.9433 12.8184 10.7168 12.8184 10.2735Z" fill="#1D2D38"></path><path d="M12.8184 12.9102C13.4271 12.9101 14.458 12.9103 15.0911 12.9102C15.0911 13.2299 15.0911 14.8921 15.0911 15.0921C14.4075 15.0921 13.5246 15.0921 12.8184 15.0921C12.8184 14.58 12.8184 13.3535 12.8184 12.9102Z" fill="#1D2D38"></path></svg></g></g><defs><clipPath id="SvgjsClipPath1117"><rect width="1000" height="1000" x="0" y="0" rx="100" ry="100"></rect></clipPath></defs></svg>