<svg width="130" height="49" viewBox="0 0 130 49" fill="none" xmlns="http://www.w3.org/2000/svg">
<path d="M35.0082 0C36.6707 0.518989 48.2567 10.4928 50.6469 11.8728C50.6469 10.2101 50.6408 8.1316 50.6408 6.38912C52.1019 6.38912 55.6353 6.3816 57.1238 6.3816C57.1238 8.65122 57.1663 14.7827 57.1663 16.8528C58.4072 17.8673 61.9746 20.7063 62.9143 21.5164C62.9143 22.5636 62.9143 26.4223 62.9143 27.1496C62.1824 26.7271 61.2471 26.0064 60.3957 25.425C59.1482 24.4615 57.8936 23.5077 56.6319 22.5636C51.0121 18.3423 45.4424 14.0551 39.9234 9.70286C38.5256 8.615 36.7212 7.19629 35.3099 6.08521C35.1569 5.97958 35.0584 5.94921 34.7467 6.19792C34.1231 6.7806 34.227 6.67667 33.786 7.04428C27.7985 11.518 21.7679 15.9338 15.695 20.2907C13.4507 21.9193 9.73899 24.5461 7.51872 26.1586C5.54417 26.1586 2.1147 26.0868 0 26.0868C1.49116 24.8633 2.75441 23.7959 4.09668 22.7825L10.6679 17.877L35.0082 0Z" fill="#1D2D38"/>
<path d="M12.5805 27.2286C13.1296 27.2286 13.1778 27.2285 13.3738 27.2286C13.3738 27.9716 13.4072 42.58 13.4072 44.9403L27.3443 44.9365C29.5522 44.9315 33.3715 44.954 35.542 44.9909C35.515 45.9907 35.4955 46.9906 35.4835 47.9904C34.5932 48.0195 33.6222 48.0069 32.7249 48.0132L10.0247 47.9968C10.0247 45.5735 9.97682 42.3737 9.97681 39.9448C9.97685 35.7676 10.0236 31.4323 10.0236 27.2286H12.5805Z" fill="#E78B38"/>
<path d="M35.5417 23.4864C36.9336 23.4861 39.2904 23.4867 40.7379 23.4863C40.7379 24.2174 40.7379 28.0176 40.7379 28.4747C39.175 28.4747 37.1565 28.4747 35.5417 28.4747C35.5417 27.3042 35.5418 24.5 35.5417 23.4864Z" fill="#1D2D38"/>
<path d="M35.5417 29.5138C36.9336 29.5134 39.2904 29.514 40.7379 29.5137C40.7379 30.2448 40.7379 34.045 40.7379 34.5021C39.175 34.5021 37.1565 34.5021 35.5417 34.5021C35.5417 33.3315 35.5418 30.5273 35.5417 29.5138Z" fill="#1D2D38"/>
<path d="M29.3064 23.4864C30.6982 23.4861 33.0551 23.4867 34.5026 23.4863C34.5026 24.2174 34.5026 28.0176 34.5026 28.4747C32.9397 28.4747 30.9211 28.4747 29.3064 28.4747C29.3064 27.3042 29.3064 24.5 29.3064 23.4864Z" fill="#1D2D38"/>
<path d="M29.3064 29.5138C30.6982 29.5134 33.0551 29.514 34.5026 29.5137C34.5026 30.2448 34.5026 34.045 34.5026 34.5021C32.9397 34.5021 30.9211 34.5021 29.3064 34.5021C29.3064 33.3315 29.3064 30.5273 29.3064 29.5138Z" fill="#1D2D38"/>
<path d="M45.9106 45.3103V30.7988H51.4658C52.5145 30.7988 53.386 30.9642 54.0804 31.2948C54.7796 31.6208 55.3015 32.0672 55.6464 32.634C55.9959 33.2009 56.1707 33.8433 56.1707 34.5613C56.1707 35.1518 56.0574 35.6572 55.8306 36.0777C55.6039 36.4934 55.2992 36.8311 54.9166 37.0909C54.5339 37.3507 54.1064 37.5373 53.634 37.6507V37.7924C54.1489 37.8207 54.6426 37.979 55.115 38.2671C55.5921 38.5506 55.9818 38.9521 56.2841 39.4717C56.5864 39.9913 56.7376 40.6196 56.7376 41.3565C56.7376 42.1076 56.5557 42.7831 56.192 43.383C55.8282 43.9782 55.2803 44.4482 54.5481 44.7931C53.8159 45.1379 52.8948 45.3103 51.7847 45.3103H45.9106ZM48.5394 43.1138H51.3666C52.3208 43.1138 53.0081 42.9319 53.4286 42.5682C53.8537 42.1997 54.0663 41.7273 54.0663 41.151C54.0663 40.7212 53.96 40.3338 53.7474 39.989C53.5348 39.6394 53.2325 39.3654 52.8404 39.167C52.4484 38.9639 51.9807 38.8623 51.4375 38.8623H48.5394V43.1138ZM48.5394 36.9705H51.1399C51.5934 36.9705 52.002 36.8878 52.3657 36.7225C52.7294 36.5524 53.0152 36.3139 53.2231 36.0068C53.4356 35.695 53.5419 35.3266 53.5419 34.9014C53.5419 34.3393 53.3435 33.8764 52.9467 33.5126C52.5547 33.1489 51.9713 32.967 51.1966 32.967H48.5394V36.9705Z" fill="#1D2D38"/>
<path d="M62.043 45.53C61.3533 45.53 60.7321 45.4072 60.1795 45.1615C59.6315 44.9112 59.1969 44.5427 58.8757 44.0562C58.5592 43.5696 58.4009 42.9697 58.4009 42.2564C58.4009 41.6423 58.5143 41.1345 58.7411 40.733C58.9678 40.3314 59.2772 40.0102 59.6693 39.7693C60.0614 39.5284 60.503 39.3465 60.9943 39.2237C61.4903 39.0962 62.0028 39.0041 62.5319 38.9474C63.1696 38.8812 63.6869 38.8222 64.0837 38.7702C64.4805 38.7135 64.7686 38.6285 64.9481 38.5151C65.1323 38.397 65.2245 38.2152 65.2245 37.9695V37.927C65.2245 37.3932 65.0662 36.9799 64.7497 36.687C64.4332 36.3942 63.9774 36.2477 63.3822 36.2477C62.7539 36.2477 62.2556 36.3847 61.8871 36.6587C61.5234 36.9327 61.2777 37.2563 61.1502 37.6294L58.7552 37.2893C58.9442 36.628 59.256 36.0753 59.6905 35.6313C60.1251 35.1825 60.6566 34.8471 61.2848 34.6251C61.9131 34.3984 62.6075 34.285 63.368 34.285C63.8924 34.285 64.4143 34.3464 64.934 34.4692C65.4536 34.592 65.9283 34.7952 66.3582 35.0786C66.788 35.3573 67.1329 35.7376 67.3927 36.2194C67.6572 36.7012 67.7895 37.3035 67.7895 38.0262V45.3103H65.3237V43.8152H65.2386C65.0827 44.1176 64.8631 44.401 64.5797 44.6655C64.301 44.9253 63.949 45.1355 63.5239 45.2961C63.1035 45.452 62.6098 45.53 62.043 45.53ZM62.709 43.6452C63.2239 43.6452 63.6703 43.5436 64.0482 43.3405C64.4261 43.1327 64.7167 42.8587 64.9198 42.5186C65.1276 42.1784 65.2315 41.8076 65.2315 41.4061V40.1236C65.1512 40.1897 65.0143 40.2511 64.8206 40.3078C64.6316 40.3645 64.4191 40.4141 64.1829 40.4566C63.9467 40.4991 63.7128 40.5369 63.4814 40.57C63.2499 40.6031 63.0492 40.6314 62.8791 40.655C62.4965 40.707 62.154 40.792 61.8517 40.9101C61.5494 41.0282 61.3108 41.1935 61.136 41.4061C60.9612 41.614 60.8738 41.8832 60.8738 42.2139C60.8738 42.6863 61.0463 43.0429 61.3911 43.2838C61.7359 43.5247 62.1753 43.6452 62.709 43.6452Z" fill="#1D2D38"/>
<path d="M70.3687 34.4267H72.8416V43.1988H76.264V34.4267H78.7369V43.1988H82.1593V34.4267H84.6322V45.3103H70.3687V34.4267Z" fill="#1D2D38"/>
<path d="M91.2095 48.4705V43.1988H92.0739C92.3054 43.0193 92.4991 42.776 92.6549 42.469C92.8108 42.1572 92.9384 41.7911 93.0376 41.3707C93.1415 40.9455 93.2265 40.4708 93.2927 39.9465C93.3588 39.4174 93.4178 38.8482 93.4698 38.2388L93.7816 34.4267H101.647V43.1988H103.333V48.4705H100.853V45.3103H93.732V48.4705H91.2095ZM94.7098 43.1988H99.195V36.4957H96.0065L95.8364 38.2388C95.7419 39.3914 95.6168 40.3787 95.4609 41.2006C95.305 42.0226 95.0546 42.6886 94.7098 43.1988Z" fill="#1D2D38"/>
<path d="M109.995 45.5229C108.933 45.5229 108.011 45.2891 107.232 44.8214C106.453 44.3538 105.848 43.6995 105.418 42.8587C104.993 42.0178 104.78 41.0353 104.78 39.911C104.78 38.7868 104.993 37.8019 105.418 36.9563C105.848 36.1107 106.453 35.4541 107.232 34.9865C108.011 34.5188 108.933 34.285 109.995 34.285C111.058 34.285 111.979 34.5188 112.759 34.9865C113.538 35.4541 114.141 36.1107 114.566 36.9563C114.996 37.8019 115.21 38.7868 115.21 39.911C115.21 41.0353 114.996 42.0178 114.566 42.8587C114.141 43.6995 113.538 44.3538 112.759 44.8214C111.979 45.2891 111.058 45.5229 109.995 45.5229ZM110.01 43.468C110.586 43.468 111.068 43.3098 111.455 42.9933C111.842 42.6721 112.131 42.2422 112.319 41.7037C112.513 41.1652 112.61 40.5653 112.61 39.9039C112.61 39.2379 112.513 38.6356 112.319 38.0971C112.131 37.5539 111.842 37.1216 111.455 36.8004C111.068 36.4792 110.586 36.3186 110.01 36.3186C109.419 36.3186 108.928 36.4792 108.536 36.8004C108.148 37.1216 107.858 37.5539 107.664 38.0971C107.475 38.6356 107.381 39.2379 107.381 39.9039C107.381 40.5653 107.475 41.1652 107.664 41.7037C107.858 42.2422 108.148 42.6721 108.536 42.9933C108.928 43.3098 109.419 43.468 110.01 43.468Z" fill="#1D2D38"/>
<path d="M123.651 42.3272L126.882 34.4267H128.951L124.551 45.3103H122.758L118.457 34.4267H120.505L123.651 42.3272ZM119.86 34.4267V45.3103H117.388V34.4267H119.86ZM127.548 45.3103V34.4267H130V45.3103H127.548Z" fill="#1D2D38"/>
</svg>
