<svg width="63" height="49" viewBox="0 0 63 49" fill="none" xmlns="http://www.w3.org/2000/svg">
<path d="M35.0082 0C36.6707 0.518989 48.2567 10.4928 50.6469 11.8728C50.6469 10.2101 50.6408 8.1316 50.6408 6.38912C52.1019 6.38912 55.6353 6.3816 57.1238 6.3816C57.1238 8.65122 57.1663 14.7827 57.1663 16.8528C58.4072 17.8673 61.9746 20.7063 62.9143 21.5164C62.9143 22.5636 62.9143 26.4223 62.9143 27.1496C62.1824 26.7271 61.2471 26.0064 60.3957 25.425C59.1482 24.4615 57.8936 23.5077 56.6319 22.5636C51.0121 18.3423 45.4424 14.0551 39.9234 9.70286C38.5256 8.615 36.7212 7.19629 35.3099 6.08521C35.1569 5.97958 35.0584 5.94921 34.7467 6.19792C34.1231 6.7806 34.227 6.67667 33.786 7.04428C27.7985 11.518 21.7679 15.9338 15.695 20.2907C13.4507 21.9193 9.73899 24.5461 7.51872 26.1586C5.54417 26.1586 2.1147 26.0868 0 26.0868C1.49116 24.8633 2.75441 23.7959 4.09668 22.7825L10.6679 17.877L35.0082 0Z" fill="#1D2D38"/>
<path d="M12.5805 27.2266C13.1296 27.2266 13.1778 27.2266 13.3738 27.2267C13.3738 27.9696 13.4072 42.5781 13.4072 44.9384L27.3443 44.9346C29.5522 44.9295 33.3715 44.952 35.542 44.9889C35.515 45.9888 35.4955 46.9886 35.4835 47.9885C34.5932 48.0176 33.6222 48.0049 32.7249 48.0113L10.0247 47.9948C10.0247 45.5715 9.97682 42.3717 9.97681 39.9429C9.97685 35.7656 10.0236 31.4304 10.0236 27.2266H12.5805Z" fill="#E78B38"/>
<path d="M35.5417 23.4845C36.9336 23.4842 39.2904 23.4847 40.7379 23.4844C40.7379 24.2155 40.7379 28.0157 40.7379 28.4728C39.175 28.4728 37.1565 28.4728 35.5417 28.4728C35.5417 27.3022 35.5418 24.498 35.5417 23.4845Z" fill="#1D2D38"/>
<path d="M35.5417 29.5157C36.9336 29.5154 39.2904 29.516 40.7379 29.5156C40.7379 30.2467 40.7379 34.0469 40.7379 34.504C39.175 34.504 37.1565 34.504 35.5417 34.504C35.5417 33.3335 35.5418 30.5293 35.5417 29.5157Z" fill="#1D2D38"/>
<path d="M29.3064 23.4845C30.6982 23.4842 33.0551 23.4847 34.5026 23.4844C34.5026 24.2155 34.5026 28.0157 34.5026 28.4728C32.9397 28.4728 30.9211 28.4728 29.3064 28.4728C29.3064 27.3022 29.3064 24.498 29.3064 23.4845Z" fill="#1D2D38"/>
<path d="M29.3064 29.5157C30.6982 29.5154 33.0551 29.516 34.5026 29.5156C34.5026 30.2467 34.5026 34.0469 34.5026 34.504C32.9397 34.504 30.9211 34.504 29.3064 34.504C29.3064 33.3335 29.3064 30.5293 29.3064 29.5157Z" fill="#1D2D38"/>
</svg>
